<svg id="Capa_1" data-name="Capa 1" xmlns="http://www.w3.org/2000/svg" viewBox="0 0 309.5 306.88"><defs><style>.cls-1{fill:#ee1125;}.cls-2{fill:#1e49d5;}.cls-3{fill:#04c459;}</style></defs><path class="cls-1" d="M160.85,6.56c46.29.56,85.77,18.67,117.38,54.05a150.92,150.92,0,0,1,12.55,16.66c1.31,2,1.32,2.87-1,4Q263,94.94,236.35,108.85a5.08,5.08,0,0,1-4.82.21c-15-6.42-30.64-9.58-46.9-10.47-5.61-.31-11.24-.35-16.83-.86-2.61-.23-3.6.23-3.94,3.34-2.92,27.13-22,44.93-49.52,47-14.48,1.08-28-1.25-40-9.77-12.62-9-18.65-22-20.44-37-.57-4.75-1.48-8.37-6.28-10.74C42.06,87.8,37,84,31.67,80.81,29.46,79.49,29,78.38,30.6,76A154.27,154.27,0,0,1,92.68,21.49a148.69,148.69,0,0,1,49.76-14C148.18,6.84,153.9,7,160.85,6.56Z" transform="translate(-5.25 -6.56)"/><path class="cls-2" d="M242.62,114.42,279.08,96.1c4.58-2.3,9.24-4.47,13.72-6.94,2.18-1.2,3.25-1,4.55,1.23a127.41,127.41,0,0,1,12.83,31.83,134.47,134.47,0,0,1,4.5,38.09c-1.57,45.87-18.57,84.6-53.34,115.16-19.39,17-41.47,28.74-66.65,34.55a126.72,126.72,0,0,1-26.81,3.38c-2.18,0-3.16-.3-3.2-2.92-.37-24.11-.94-48.22-1.37-72.33-.05-2.9-1.24-5.45-1.92-8.14-2.82-11-4.76-22.22-4.54-33.63.18-9.72,1.76-19.28,6.73-27.85,6.84-11.81,17.75-17.44,30.89-19,21.85-2.66,36,8.47,46,26.47,7.47,13.52,10.92,28.36,13.23,43.51,1.06,6.89,1.55,13.84,1.92,20.79.12,2.05.7,2.42,2.64,2,10.27-2.31,17.9-8.61,24.82-16.06,9.28-10,12.85-22.22,14.05-35.42a97.07,97.07,0,0,0,.25-14.27c-.24-4.38-1.83-8-3.89-11.63-11.5-20.41-27.73-36.17-47.56-48.4C245,115.89,244,115.3,242.62,114.42Z" transform="translate(-5.25 -6.56)"/><path class="cls-3" d="M47.83,109.87c-5.38-1.57-10.53-3-15.58-4.62-1.93-.64-2.85-.49-3.32,1.61-3.79,17-7.88,34.06-6.77,51.74.69,11.18,3.67,21.86,7.39,32.36.7,2,1.62,2.11,3.56,1.3a74,74,0,0,1,28.11-6c23.1-.12,49.18,19.26,51.41,46.25.36,4.28.85,8.51,0,12.77-.6,3.12.38,3.47,3.53,3.07a258.75,258.75,0,0,0,33.72-6.67c2.82-.74,3.18.05,3.28,2.61.83,20.81.41,41.63.79,62.43.13,7.12,0,7.17-7.22,6.43C108.24,309.16,75.13,293.8,48,266c-21.14-21.64-35-47.27-40.35-77.09-6.14-34.45-.16-67.31,14.71-98.75,1-2.23,2-3.17,4.52-1.32A133.08,133.08,0,0,0,42.55,99.05C47.18,101.48,47.77,105.15,47.83,109.87Z" transform="translate(-5.25 -6.56)"/><path d="M125.74,196a7.95,7.95,0,1,1,0-15.89,7.77,7.77,0,0,1,8.13,7.92A7.86,7.86,0,0,1,125.74,196Z" transform="translate(-5.25 -6.56)"/></svg>