<svg xmlns="http://www.w3.org/2000/svg" viewBox="0 0 22.26 18.61"><defs><style>.cls-1,.cls-2{fill:#637381;}.cls-2{isolation:isolate;opacity:0.4;}</style></defs><g id="Layer_2" data-name="Layer 2"><g id="Layer_1-2" data-name="Layer 1"><g id="_000000ff" data-name="#000000ff"><path class="cls-1" d="M0,.33A.4.4,0,0,1,.39,0H3.17A2.14,2.14,0,0,1,5,1.26,2.64,2.64,0,0,1,5.22,2c.11.67.21,1.33.32,2H21.83a.41.41,0,0,1,.43.34v.11c-.55,2.42-1.11,4.83-1.67,7.25a3.37,3.37,0,0,1-.28.92,1.92,1.92,0,0,1-1.65,1H7.07c.13.85.27,1.7.4,2.55,0,.1.07.21.18.21h.59a1.94,1.94,0,0,1,.83-1.25A1.79,1.79,0,0,1,10.75,15a1.9,1.9,0,0,1,1.09,1.38h4.63a1.92,1.92,0,0,1,.88-1.28A1.78,1.78,0,0,1,18.94,15a1.82,1.82,0,0,1,1,1,1.91,1.91,0,0,1,0,1.5,1.86,1.86,0,0,1-1.05,1,1.81,1.81,0,0,1-1.39,0,1.89,1.89,0,0,1-1-1.32H11.83A1.88,1.88,0,0,1,11,18.35a1.82,1.82,0,0,1-1.75.07,1.87,1.87,0,0,1-1-1.3H7.56a1,1,0,0,1-.85-.82L4.43,1.94A1.38,1.38,0,0,0,3.13.78C2.22.77,1.3.78.39.78A.42.42,0,0,1,0,.45V.33M5.67,4.75c.42,2.69.85,5.37,1.27,8.06H18.61a1.14,1.14,0,0,0,1.12-.87q.84-3.58,1.66-7.19H5.67M9.81,15.62A1.13,1.13,0,0,0,9,16.73a1.1,1.1,0,0,0,.81,1.07,1,1,0,0,0,1.09-.41A1.19,1.19,0,0,0,10.82,16a1,1,0,0,0-1-.34m8.33,0a1.1,1.1,0,0,0-.92,1.25,1.09,1.09,0,0,0,1.17,1,1.12,1.12,0,0,0,.92-1.28A1.07,1.07,0,0,0,18.14,15.61Z"/><path class="cls-1" d="M13.32,5.18a3.65,3.65,0,0,1,3.59,2.2,3.63,3.63,0,0,1-3.21,5.07,3.64,3.64,0,0,1-2.24-6.61,3.73,3.73,0,0,1,1.86-.66m0,.78a2.85,2.85,0,0,0-1.75.76A2.88,2.88,0,1,0,13.36,6Z"/><path class="cls-1" d="M13.17,6.85a.39.39,0,1,1,.77,0c0,.5,0,1,0,1.49h1.49a.4.4,0,0,1,.4.39.39.39,0,0,1-.4.39H14c0,.51,0,1,0,1.52a.38.38,0,0,1-.37.37.39.39,0,0,1-.4-.37V9.12H11.65a.4.4,0,0,1-.36-.44.4.4,0,0,1,.41-.34h1.47Z"/></g><circle class="cls-2" cx="18.29" cy="16.72" r="1.43"/><circle class="cls-2" cx="10.04" cy="16.72" r="1.43"/><path class="cls-2" d="M5.21,4.35l1.36,8.94H18.23s1.87,0,2.25-2.6,1.28-6.17,1.28-6.17S5.14,4.29,5.21,4.35Z"/></g></g></svg>