<?xml version="1.0" encoding="utf-8"?>
<!-- Generator: Adobe Illustrator 26.0.0, SVG Export Plug-In . SVG Version: 6.00 Build 0)  -->
<svg version="1.1" id="Layer_1" xmlns="http://www.w3.org/2000/svg" xmlns:xlink="http://www.w3.org/1999/xlink" x="0px" y="0px"
	 viewBox="0 0 24 24" style="enable-background:new 0 0 24 24;" xml:space="preserve">
<style type="text/css">
	.st0{opacity:0.4;fill:#637381;enable-background:new    ;}
	.st1{fill:#637381;}
</style>
<circle class="st0" cx="-25.7" cy="18.9" r="3.5"/>
<path class="st0" d="M-41.6,1.7v20.6h15.2c0,0-4.2-1.4-2.7-4.7c0,0,1.2-2.2,3.3-2.2V6.2l-4.4-4.4C-30.2,1.8-41.7,1.6-41.6,1.7z"/>
<path class="st1" d="M-70.4,10.6c0.1-0.6-0.4-1.1-1-1.1c-0.5,0-0.9,0.4-1,0.9l-0.3,3c-0.1,0.6,0.4,1.1,1,1.1c0.5,0,0.9-0.4,1-0.9
	L-70.4,10.6z"/>
<path class="st1" d="M-75.3,10.4c-0.1-0.5-0.5-0.9-1-0.9c-0.6,0-1,0.5-1,1.1l0.3,3c0.1,0.5,0.5,0.9,1,0.9c0.6,0,1-0.5,1-1.1
	L-75.3,10.4z"/>
<path class="st1" d="M-71.3,19c0,1.7,1.3,3,3,3c1.7,0,3-1.3,3-3c0-1.7-1.3-3-3-3C-70,16-71.3,17.3-71.3,19z"/>
<path class="st1" d="M-81.8,19c0,1.7,1.3,3,3,3s3-1.3,3-3c0-1.7-1.3-3-3-3S-81.8,17.3-81.8,19z"/>
<path class="st0" d="M-84.6,2c-0.7,0-1.2,0.6-1.2,1.2c0,0.7,0.6,1.3,1.2,1.3h0.8c0.2,0,0.4,0.2,0.5,0.4C-83,6-82.4,9-81.9,11
	c0.6,2.5,1.2,4.3,1.6,5.4c0.4-0.3,1-0.4,1.5-0.4c1.3,0,2.4,0.8,2.8,1.9c0.7,0,1.6,0.1,2.6,0.1c0.9,0,1.6,0,2.2,0
	c0.4-1.1,1.5-2,2.8-2c0.6,0,1.1,0.2,1.5,0.4c0.4-0.9,0.8-2.4,1.2-4.7c0.3-1.6,0.5-2.9,0.6-3.8c0.1-1.1-0.7-2-1.8-2h-13.5L-81,3.5
	C-81.2,2.6-82,2-82.9,2H-84.6z"/>
<g id="_x23_000000ff">
	<path class="st1" d="M-41.9,1.8c0-0.2,0.1-0.4,0.3-0.4c3.8,0,7.5,0,11.3,0c0.1,0,0.2,0,0.3,0.1c1.5,1.5,2.9,2.9,4.4,4.4
		c0.1,0.1,0.1,0.2,0.1,0.3c0,3,0,5.9,0,8.9c0.6,0.1,1.2,0.3,1.7,0.6c0.6,0.4,1.1,1,1.4,1.7c0.3,0.7,0.4,1.5,0.3,2.2
		c-0.1,0.7-0.5,1.4-1,1.9c-0.7,0.7-1.7,1.2-2.7,1.1c-5.3,0-10.5,0-15.8,0c-0.2,0-0.4-0.2-0.3-0.4C-41.9,15.4-41.9,8.6-41.9,1.8
		 M-41.2,2.1c0,6.6,0,13.2,0,19.9c4.4,0,8.8,0,13.2,0c-0.3-0.2-0.6-0.5-0.8-0.8c-0.8-1.1-1-2.7-0.4-3.9c0.6-1.2,1.8-2,3-2.1
		c0-2.9,0-5.7,0-8.6c-1.4,0-2.7,0-4.1,0c-0.2,0-0.3-0.2-0.3-0.3c0-1.4,0-2.7,0-4.1C-34.2,2.1-37.7,2.1-41.2,2.1 M-29.9,2.6
		c0,1.1,0,2.2,0,3.3c1.1,0,2.2,0,3.3,0C-27.8,4.7-28.9,3.7-29.9,2.6 M-26.2,15.8c-1.1,0.1-2.1,0.9-2.5,2c-0.3,0.6-0.3,1.4-0.1,2
		c0.2,0.6,0.5,1.1,1,1.5c0.5,0.4,1.1,0.6,1.7,0.7c0.6,0,1.2-0.1,1.7-0.4c0.6-0.3,1.1-0.9,1.3-1.5c0.3-0.6,0.3-1.4,0.1-2.1
		c-0.2-0.8-0.7-1.4-1.4-1.8C-24.8,15.9-25.5,15.7-26.2,15.8z"/>
	<path class="st1" d="M-38.6,7.2c0.1,0,0.1,0,0.2,0c0.4,0,0.9,0,1.3,0c0.2,0,0.3,0.2,0.3,0.3c0,0.5,0,0.9,0,1.4
		c0,0.2-0.2,0.3-0.3,0.3c-0.5,0-0.9,0-1.4,0c-0.2,0-0.3-0.2-0.3-0.3c0-0.5,0-0.9,0-1.4C-38.8,7.4-38.8,7.3-38.6,7.2 M-38.2,7.9
		c0,0.2,0,0.5,0,0.7c0.2,0,0.5,0,0.7,0c0-0.2,0-0.5,0-0.7C-37.7,7.9-37.9,7.9-38.2,7.9z"/>
	<path class="st1" d="M-35.9,7.9c0.1,0,0.1,0,0.2,0c2.1,0,4.3,0,6.4,0c0.2,0,0.3,0.2,0.3,0.3c0,0.2-0.2,0.3-0.3,0.3
		c-2.2,0-4.3,0-6.5,0c-0.2,0-0.3-0.1-0.4-0.2C-36.2,8.2-36.1,8-35.9,7.9z"/>
	<path class="st1" d="M-38.6,10.3c0.1,0,0.1,0,0.2,0c0.4,0,0.9,0,1.3,0c0.2,0,0.3,0.2,0.3,0.3c0,0.5,0,0.9,0,1.4
		c0,0.2-0.2,0.3-0.3,0.3c-0.5,0-0.9,0-1.4,0c-0.2,0-0.3-0.2-0.3-0.3c0-0.5,0-0.9,0-1.4C-38.8,10.5-38.8,10.4-38.6,10.3 M-38.2,11
		c0,0.2,0,0.5,0,0.7c0.2,0,0.5,0,0.7,0c0-0.2,0-0.5,0-0.7C-37.7,11-37.9,11-38.2,11z"/>
	<path class="st1" d="M-35.9,11c0.1,0,0.1,0,0.2,0c2.1,0,4.3,0,6.4,0c0.2,0,0.3,0.2,0.3,0.3c0,0.2-0.2,0.3-0.3,0.3
		c-2.2,0-4.3,0-6.5,0c-0.2,0-0.3-0.1-0.4-0.3C-36.1,11.2-36,11-35.9,11z"/>
	<path class="st1" d="M-38.6,13.4c0.1,0,0.1,0,0.2,0c0.4,0,0.9,0,1.3,0c0.2,0,0.3,0.2,0.3,0.3c0,0.5,0,0.9,0,1.4
		c0,0.2-0.2,0.3-0.3,0.3c-0.5,0-0.9,0-1.4,0c-0.2,0-0.3-0.2-0.3-0.3c0-0.5,0-0.9,0-1.4C-38.8,13.6-38.8,13.4-38.6,13.4 M-38.2,14.1
		c0,0.2,0,0.5,0,0.7c0.2,0,0.5,0,0.7,0c0-0.2,0-0.5,0-0.7C-37.7,14.1-37.9,14.1-38.2,14.1z"/>
	<path class="st1" d="M-35.9,14.1c0.1,0,0.1,0,0.2,0c2.1,0,4.3,0,6.4,0c0.2,0,0.3,0.2,0.3,0.3c0,0.2-0.2,0.3-0.3,0.3
		c-2.2,0-4.3,0-6.5,0c-0.2,0-0.4-0.2-0.3-0.4C-36.1,14.2-36,14.1-35.9,14.1z"/>
	<path class="st1" d="M-38.6,16.5c0.1,0,0.1,0,0.2,0c0.4,0,0.9,0,1.3,0c0.2,0,0.3,0.2,0.3,0.3c0,0.5,0,0.9,0,1.4
		c0,0.2-0.2,0.3-0.3,0.3c-0.5,0-0.9,0-1.4,0c-0.2,0-0.3-0.2-0.3-0.3c0-0.5,0-0.9,0-1.4C-38.8,16.7-38.8,16.5-38.6,16.5 M-38.2,17.1
		c0,0.2,0,0.5,0,0.7c0.2,0,0.5,0,0.7,0c0-0.2,0-0.5,0-0.7C-37.7,17.1-37.9,17.1-38.2,17.1z"/>
	<path class="st1" d="M-35.9,17.2c0.1,0,0.1,0,0.2,0c1.3,0,2.7,0,4,0c0.2,0,0.3,0.2,0.3,0.3c0,0.2-0.2,0.3-0.3,0.3
		c-1.4,0-2.7,0-4.1,0c-0.2,0-0.3-0.1-0.3-0.3C-36.1,17.4-36,17.2-35.9,17.2z"/>
	<path class="st1" d="M-24,17.2c0.1-0.1,0.4-0.1,0.5,0c0.1,0.1,0.1,0.4,0,0.5c-0.8,0.8-1.6,1.6-2.4,2.4c-0.1,0.1-0.4,0.1-0.5,0
		c-0.5-0.5-0.9-0.9-1.4-1.4c-0.1-0.1-0.1-0.4,0-0.5c0.1-0.1,0.3-0.1,0.5,0c0.4,0.4,0.8,0.8,1.1,1.1C-25.5,18.7-24.7,18-24,17.2z"/>
</g>
<g id="_x23_000000ff_00000114782870606833723500000013338265256245047724_">
	<path class="st1" d="M7.6,1.3h10.5c0.2,0,0.3,0.2,0.5,0.3c1.3,1.3,2.5,2.5,3.8,3.8c0.1,0.1,0.3,0.3,0.3,0.5v15.5
		c0,0.3-0.1,0.6-0.4,0.9c-0.2,0.2-0.5,0.3-0.8,0.4H7.6c-0.5,0-0.9-0.3-1.1-0.7c-0.1-0.3-0.1-0.6-0.1-0.9c0-2.7,0-5.4,0-8.1
		c-1,0.1-2-0.1-2.8-0.6c-1-0.6-1.8-1.6-2.1-2.8C1.4,9.2,1.3,8.8,1.3,8.5V8.4c0-0.4,0.1-0.7,0.1-1.1c0.3-1,0.9-1.9,1.7-2.6
		c0.9-0.7,2-1,3.1-0.9c0-0.4,0-0.8,0-1.3c0-0.3,0.2-0.7,0.4-0.9C7,1.4,7.3,1.3,7.6,1.3 M7.3,2.2C7.2,2.3,7.2,2.5,7.2,2.6
		c0,0.5,0,0.9,0,1.4c1,0.3,1.9,0.9,2.5,1.8c0.6,0.8,0.9,1.8,0.8,2.8c0,1-0.4,2-1.1,2.8c-0.6,0.7-1.4,1.2-2.2,1.5c0,2.8,0,5.6,0,8.4
		c0,0.2,0,0.4,0.1,0.5c0.1,0.1,0.4,0.1,0.5,0.1c4.5,0,9,0,13.5,0c0.2,0,0.3,0,0.4-0.2c0.1-0.1,0.1-0.3,0.1-0.5c0-4.9,0-9.9,0-14.8
		c-1.2,0-2.4,0-3.6,0c-0.1,0-0.3,0-0.4-0.1c-0.1-0.1-0.1-0.2-0.1-0.4c0-1.2,0-2.4,0-3.7c-3.3,0-6.6,0-9.8,0C7.7,2.2,7.5,2.1,7.3,2.2
		 M18.5,2.7c0,0.9,0,1.8,0,2.7c0.9,0,1.8,0,2.7,0C20.3,4.6,19.4,3.7,18.5,2.7 M2.7,6.5C2.2,7.4,2,8.4,2.3,9.3
		c0.2,0.8,0.7,1.6,1.4,2.1c0.7,0.5,1.6,0.8,2.4,0.7c0.9,0,1.8-0.5,2.5-1.1c0.6-0.6,1-1.4,1.1-2.2c-1.2,0-2.4,0-3.6,0
		c-0.1,0-0.3,0-0.4-0.1C5.5,8.6,5.5,8.5,5.5,8.3c0-1.2,0-2.4,0-3.6C4.3,4.8,3.2,5.5,2.7,6.5 M6.3,4.7c0,1.1,0,2.2,0,3.3
		c1.1,0,2.2,0,3.3,0C9.5,7.1,9.1,6.3,8.5,5.7C7.9,5.1,7.1,4.8,6.3,4.7z"/>
	<path class="st1" d="M12,3.8c1.4,0,2.9,0,4.3,0c0.2,0,0.3,0,0.4,0.1c0.2,0.1,0.2,0.4,0,0.6c-0.1,0.1-0.2,0.1-0.4,0.1
		c-1.4,0-2.9,0-4.3,0c-0.2,0-0.4-0.1-0.4-0.3C11.5,4.1,11.7,3.8,12,3.8z"/>
	<path class="st1" d="M12,5.5c1.5,0,2.9,0,4.4,0c0.2,0,0.5,0.2,0.5,0.4c0,0.2-0.2,0.4-0.5,0.4c-1.4,0-2.9,0-4.3,0
		c-0.2,0-0.4-0.1-0.4-0.3C11.5,5.8,11.7,5.5,12,5.5z"/>
	<path class="st1" d="M3.4,8c0.2,0,0.4,0.2,0.4,0.4c0,0.7,0.4,1.5,1.1,1.8c0.2,0.1,0.5,0.2,0.7,0.3c0.2,0,0.5,0,0.6,0.2
		c0.2,0.2,0,0.6-0.3,0.7c-0.7,0-1.4-0.2-1.9-0.7C3.4,10.1,3,9.3,3,8.4C3,8.2,3.2,8,3.4,8z"/>
	<path class="st1" d="M11.7,8c0.3,0,0.6,0.3,0.4,0.6c-0.1,0.3-0.6,0.3-0.7,0C11.2,8.4,11.4,8,11.7,8z"/>
	<path class="st1" d="M13.4,8c2.1,0,4.2,0,6.3,0c0.2,0,0.5,0.1,0.5,0.4c0,0.3-0.2,0.5-0.4,0.5c-2.1,0-4.2,0-6.3,0
		c-0.2,0-0.4-0.1-0.4-0.3C13,8.3,13.1,8,13.4,8z"/>
	<path class="st1" d="M11.7,9.7c0.3,0,0.6,0.3,0.4,0.6c-0.1,0.3-0.6,0.3-0.7,0C11.2,10.1,11.4,9.7,11.7,9.7z"/>
	<path class="st1" d="M13.4,9.7c2.1,0,4.1,0,6.2,0c0.2,0,0.3,0,0.4,0.1c0.2,0.2,0.2,0.5,0,0.6c-0.1,0.1-0.3,0.1-0.4,0.1
		c-2,0-4.1,0-6.1,0c-0.2,0-0.4-0.1-0.4-0.3C13,9.9,13.1,9.7,13.4,9.7z"/>
	<path class="st1" d="M18.5,13.1c0.3-0.5,1-0.8,1.5-0.6c0.6,0.2,0.9,0.8,0.8,1.4c-0.1,0.5-0.6,1-1.1,1c-0.2,0-0.3,0-0.5,0
		c-1,1-1.9,2.1-2.9,3.1c0.2,0.4,0.3,0.9,0.1,1.3c-0.3,0.5-0.9,0.8-1.5,0.6c-0.5-0.2-0.9-0.7-0.9-1.3c0-0.2,0.1-0.3,0.1-0.5
		c-0.4-0.5-0.9-1.1-1.3-1.6c-0.3,0.1-0.7,0.1-1,0c-0.5,0.6-1,1.1-1.5,1.6c0.2,0.4,0.2,0.9-0.1,1.3c-0.3,0.5-1,0.7-1.5,0.4
		C8.2,19.6,7.9,19,8,18.4c0.1-0.5,0.6-0.9,1.2-1c0.2,0,0.4,0,0.6,0.1c0.5-0.5,1-1.1,1.5-1.6c-0.1-0.3-0.2-0.7,0-1
		c0.2-0.5,0.8-0.8,1.4-0.7c0.4,0.1,0.8,0.4,1,0.8c0.1,0.3,0.1,0.7-0.1,1c0.4,0.5,0.9,1.1,1.3,1.6c0.3-0.1,0.6-0.1,0.9-0.1
		c1-1,1.9-2.1,2.9-3.1C18.3,14,18.3,13.5,18.5,13.1 M19.6,13.3c-0.3,0-0.5,0.4-0.3,0.7c0.2,0.3,0.6,0.2,0.7-0.1
		C20.1,13.6,19.9,13.2,19.6,13.3 M12.4,14.9c-0.3,0-0.5,0.4-0.3,0.6c0.2,0.3,0.6,0.2,0.7,0C12.9,15.3,12.7,14.9,12.4,14.9 M9.2,18.3
		c-0.3,0-0.5,0.4-0.3,0.6c0.2,0.3,0.6,0.2,0.7,0C9.8,18.6,9.5,18.2,9.2,18.3 M15.3,18.3c-0.3,0-0.5,0.4-0.3,0.6
		c0.2,0.3,0.6,0.2,0.7,0C15.9,18.6,15.6,18.2,15.3,18.3z"/>
</g>
<path class="st0" d="M18.2,1.9l-11-0.1C6.3,2,6.7,2.5,6.7,2.5v1.9c-0.3,0-0.5-0.1-0.8-0.1c-2.3,0-4.2,1.9-4.2,4.2
	c0,2.3,1.9,4.2,4.2,4.2c0.3,0,0.5,0,0.8-0.1v7.2c-0.1,3.2,2,2.4,2,2.4l12.3,0.1l1.3-0.4V5.8L18.2,1.9z"/>
<g>
	<path class="st1" d="M55.5,2.7c0.7-0.1,1.5,0,2.2,0.3c0.9,0.4,1.6,1.2,2,2.2c0.4,1.1,0.3,2.4-0.4,3.4c-0.4,0.6-1,1.1-1.6,1.4
		c-1.1,0.5-2.5,0.4-3.6-0.2c-0.6-0.4-1.1-1-1.5-1.6c-0.3-0.5-0.4-1.2-0.4-1.8c0-0.9,0.4-1.8,1-2.5C53.8,3.2,54.6,2.8,55.5,2.7z"/>
	<path class="st1" d="M48.9,6.2c0.6-0.1,1.3,0.1,1.9,0.4c0.5,0.3,1,0.9,1.2,1.5c0.2,0.6,0.2,1.3,0,1.9c-0.3,0.9-1,1.6-1.9,1.8
		C49.4,12,48.6,12,48,11.6c-0.6-0.3-1.1-0.8-1.4-1.5c-0.2-0.5-0.3-1-0.2-1.6C46.5,8,46.8,7.4,47.3,7C47.7,6.6,48.3,6.3,48.9,6.2z"/>
	<path class="st1" d="M62.4,6.2c0.6-0.1,1.3,0.1,1.8,0.4c0.5,0.3,1,0.8,1.2,1.4c0.3,0.7,0.3,1.4,0,2.1c-0.3,0.7-0.8,1.2-1.4,1.5
		c-0.6,0.3-1.3,0.4-2,0.2c-0.7-0.2-1.3-0.7-1.7-1.3C59.9,9.9,59.8,9,60,8.2C60.3,7.2,61.3,6.3,62.4,6.2z"/>
	<path class="st0" d="M53.7,11.1c0.2,0,0.5,0,0.7,0c1.2,0,2.4,0,3.5,0c0.5,0,1,0.1,1.4,0.3c0.7,0.4,1.3,1,1.6,1.7
		c0.1,0.4,0.2,0.8,0.2,1.2c0,2.1,0,4.1,0,6.2c0,0.2,0,0.4-0.1,0.5c-0.1,0.2-0.4,0.4-0.6,0.3c-3,0-6,0-8.9,0c-0.4,0-0.7-0.3-0.7-0.7
		c0-2.1,0-4.3,0-6.4c0-0.7,0.2-1.4,0.7-1.9C52,11.6,52.9,11.2,53.7,11.1z"/>
	<path class="st0" d="M46,13.6c0.6-0.5,1.3-0.8,2.1-0.8c0.6,0,1.2,0,1.8,0c-0.2,0.5-0.3,1.1-0.3,1.6c0,1.9,0,3.8,0,5.7
		c0,0.4,0,0.9,0.1,1.3c-0.7,0-1.5,0-2.2,0c-0.3,0-0.6,0-0.9,0c-0.4-0.1-0.7-0.3-1-0.5c-0.4-0.3-0.5-0.8-0.6-1.3v-3.6
		C45,15,45.3,14.2,46,13.6z"/>
	<path class="st0" d="M62.2,12.7c0.5,0,1,0,1.5,0c0.3,0,0.7,0,1,0.1c0.7,0.2,1.3,0.6,1.8,1.2c0.4,0.5,0.6,1.2,0.6,1.8v3.6
		c0,0.3-0.1,0.6-0.2,0.9c-0.3,0.5-0.8,0.9-1.4,1c-0.3,0-0.6,0-0.9,0c-0.7,0-1.5,0-2.2,0c0.1-0.2,0.1-0.5,0.1-0.7c0-2.1,0-4.2,0-6.3
		C62.4,13.8,62.3,13.3,62.2,12.7z"/>
</g>
<g>
	<g id="_x23_000000ff_00000111178618121103421480000009567024855149715113_">
		<path class="st1" d="M-87.1,29.9c0-0.2,0.2-0.3,0.4-0.3c0.9,0,1.9,0,2.8,0c0.8,0,1.5,0.5,1.9,1.3c0.1,0.2,0.2,0.5,0.2,0.7
			c0.1,0.7,0.2,1.3,0.3,2c5.4,0,10.9,0,16.3,0c0.2,0,0.4,0.1,0.4,0.3V34c-0.6,2.4-1.1,4.8-1.7,7.2c-0.1,0.3-0.1,0.6-0.3,0.9
			c-0.3,0.6-1,1-1.7,1c-3.9,0-7.7,0-11.6,0c0.1,0.9,0.3,1.7,0.4,2.5c0,0.1,0.1,0.2,0.2,0.2c0.2,0,0.4,0,0.6,0c0.1-0.5,0.4-1,0.8-1.2
			c0.5-0.3,1.1-0.4,1.7-0.1c0.6,0.2,1,0.8,1.1,1.4c1.5,0,3.1,0,4.6,0c0.1-0.5,0.4-1,0.9-1.3c0.5-0.3,1.1-0.3,1.6-0.1
			c0.5,0.2,0.8,0.6,1,1c0.2,0.5,0.2,1,0,1.5c-0.2,0.5-0.6,0.9-1.1,1c-0.4,0.2-1,0.2-1.4,0c-0.5-0.2-0.9-0.8-1-1.3
			c-1.5,0-3.1,0-4.6,0c-0.1,0.5-0.4,1-0.9,1.2c-0.5,0.3-1.2,0.3-1.8,0.1c-0.5-0.2-0.9-0.7-1-1.3c-0.2,0-0.5,0-0.7,0
			c-0.4,0-0.8-0.4-0.8-0.8c-0.8-4.8-1.5-9.6-2.3-14.4c-0.1-0.6-0.7-1.2-1.3-1.2c-0.9,0-1.8,0-2.7,0c-0.2,0-0.4-0.1-0.4-0.3V29.9
			 M-81.5,34.3c0.4,2.7,0.9,5.4,1.3,8.1c3.9,0,7.8,0,11.7,0c0.5,0,1-0.4,1.1-0.9c0.6-2.4,1.1-4.8,1.7-7.2
			C-71,34.3-76.2,34.3-81.5,34.3 M-77.3,45.2c-0.5,0.1-0.8,0.6-0.8,1.1c0,0.5,0.3,1,0.8,1.1c0.4,0.1,0.9-0.1,1.1-0.4
			c0.3-0.4,0.3-1-0.1-1.4C-76.6,45.3-77,45.1-77.3,45.2 M-69,45.2c-0.6,0.1-1,0.7-0.9,1.3c0.1,0.6,0.6,1.1,1.2,1
			c0.6-0.1,1-0.7,0.9-1.3C-67.9,45.6-68.4,45.1-69,45.2z"/>
		<path class="st1" d="M-73.8,34.8c0.8-0.1,1.5,0.1,2.2,0.6c0.6,0.4,1.1,1,1.4,1.6c0.3,0.8,0.4,1.7,0.1,2.5
			c-0.2,0.7-0.6,1.3-1.2,1.8c-0.6,0.5-1.4,0.8-2.1,0.8c-0.8,0-1.5-0.2-2.1-0.6c-0.7-0.4-1.2-1.1-1.4-1.9c-0.3-0.8-0.3-1.6,0-2.4
			c0.2-0.7,0.7-1.4,1.3-1.8C-75.1,35-74.5,34.8-73.8,34.8 M-73.8,35.5c-0.6,0-1.3,0.3-1.8,0.8c-0.5,0.5-0.8,1.1-0.9,1.8
			c-0.1,0.7,0.1,1.3,0.5,1.9c0.4,0.5,0.9,1,1.6,1.1c0.6,0.2,1.3,0.1,1.8-0.1c0.8-0.3,1.4-0.9,1.6-1.7c0.2-0.6,0.2-1.2,0-1.8
			c-0.2-0.6-0.6-1.1-1.1-1.5C-72.4,35.7-73.1,35.5-73.8,35.5z"/>
		<path class="st1" d="M-74,36.4c0-0.2,0.2-0.4,0.4-0.4c0.2,0,0.4,0.2,0.4,0.4c0,0.5,0,1,0,1.5c0.5,0,1,0,1.5,0
			c0.2,0,0.4,0.2,0.4,0.4c0,0.2-0.2,0.4-0.4,0.4c-0.5,0-1,0-1.5,0c0,0.5,0,1,0,1.5c0,0.2-0.2,0.4-0.4,0.4c-0.2,0-0.4-0.2-0.4-0.4
			c0-0.5,0-1,0-1.5c-0.5,0-1,0-1.5,0c-0.2,0-0.4-0.2-0.4-0.4c0-0.2,0.2-0.4,0.4-0.3c0.5,0,1,0,1.5,0C-74,37.4-74,36.9-74,36.4z"/>
	</g>
	<circle class="st0" cx="-68.8" cy="46.3" r="1.4"/>
	<circle class="st0" cx="-77.1" cy="46.3" r="1.4"/>
	<path class="st0" d="M-81.9,33.9l1.4,8.9h11.7c0,0,1.9,0,2.3-2.6c0.4-2.6,1.3-6.2,1.3-6.2S-82,33.9-81.9,33.9z"/>
</g>
<g>
	<path class="st1" d="M-21.8,32.1c0-0.5-0.2-0.9-0.6-1.3c-0.3-0.3-0.7-0.4-1.1-0.4c-0.6,0-1.1,0-1.7,0c0-0.3,0-0.6,0-0.8
		c-0.1-0.4-0.4-0.8-0.8-1c-0.4-0.2-0.8-0.2-1.1,0c-0.3,0.2-0.6,0.5-0.7,0.8c-0.1,0.3,0,0.7-0.1,1.1c-0.9,0-1.8,0-2.7,0
		c0-0.3,0-0.6,0-0.9c-0.1-0.5-0.5-1-1-1.1c-0.6-0.2-1.2,0.1-1.5,0.7c-0.2,0.4-0.1,0.8-0.1,1.3c-0.9,0-1.8,0-2.7,0c0-0.3,0-0.6,0-0.9
		c-0.1-0.4-0.4-0.8-0.8-1c-0.4-0.2-0.8-0.1-1.1,0.1c-0.3,0.2-0.6,0.5-0.7,0.9c-0.1,0.3,0,0.6,0,1c-0.6,0-1.1,0-1.7,0
		c-0.5,0-0.9,0.2-1.2,0.5c-0.3,0.3-0.5,0.7-0.4,1.2c0,4.3,0,8.6,0,12.9c0,0.2,0,0.5,0.1,0.7c0.2,0.7,0.9,1.2,1.6,1.2
		c3.1,0,7.7,0,10.8,0c0,0,0.1,0,0.1,0c0.2,0.2,0.5,0.4,0.7,0.6c0.8,0.5,1.7,0.8,2.7,0.7c0.8-0.1,1.6-0.3,2.2-0.8
		c1-0.7,1.7-1.9,1.8-3.2c0-0.2,0-0.4,0-0.6c0,0,0,0,0-0.1C-21.8,40.9-21.8,35-21.8,32.1z M-27.1,29.8c0-0.3,0.2-0.6,0.5-0.7
		c0.4-0.1,0.8,0.3,0.8,0.7c0,0.7,0,1.3,0,2c0,0.3-0.2,0.5-0.4,0.6c-0.4,0.2-0.9-0.2-0.9-0.7C-27.1,31.1-27.1,30.4-27.1,29.8z
		 M-32.4,29.8c0-0.3,0.2-0.6,0.6-0.7c0.4-0.1,0.8,0.3,0.8,0.7c0,0.7,0,1.3,0,2c0,0.4-0.3,0.7-0.7,0.7c-0.4,0-0.7-0.3-0.7-0.7
		C-32.4,31.1-32.4,30.5-32.4,29.8z M-37.7,29.8c0-0.3,0.2-0.6,0.5-0.7c0.4-0.1,0.8,0.2,0.8,0.6c0,0.7,0,1.4,0,2
		c0,0.2-0.1,0.4-0.3,0.6c-0.2,0.2-0.6,0.1-0.8-0.1c-0.1-0.1-0.2-0.3-0.2-0.5C-37.7,31.1-37.7,30.5-37.7,29.8z M-40.9,31.7
		c0.2-0.3,0.5-0.6,0.9-0.6c0.6,0,1.1,0,1.7,0c0,0.4-0.1,0.9,0.1,1.2c0.2,0.5,0.8,0.8,1.4,0.7c0.5-0.1,0.9-0.4,1-0.8
		c0.1-0.4,0.1-0.8,0.1-1.1c0.9,0,1.8,0,2.7,0c0,0.4-0.1,0.9,0.1,1.2c0.2,0.5,0.9,0.8,1.4,0.7c0.5-0.1,0.9-0.5,1-1c0.1-0.3,0-0.6,0-1
		c0.9,0,1.8,0,2.7,0c0,0.4-0.1,0.9,0.1,1.2c0.2,0.5,0.9,0.9,1.4,0.7c0.5-0.1,0.9-0.5,1-1c0.1-0.3,0-0.6,0-1c0.6,0,1.1,0,1.7,0
		c0.5,0,0.9,0.5,0.9,0.9c0,0.8,0,1.6,0,2.4c-6.2,0-12.4,0-18.6,0c0-0.7,0-1.5,0-2.2C-41,32-41,31.9-40.9,31.7z M-39.8,46.4
		c-0.2,0-0.4,0-0.6-0.1c-0.4-0.2-0.6-0.5-0.6-0.9c0-3.4,0-6.9,0-10.3c6.2,0,12.4,0,18.6,0c0,1.4,0,4.4,0,6.7
		c-0.4-0.6-0.9-1.1-1.5-1.5c-0.8-0.4-1.7-0.6-2.6-0.5c-0.7,0.1-1.4,0.4-2,0.8c-0.8,0.6-1.4,1.5-1.6,2.5c-0.2,0.9-0.1,1.9,0.3,2.8
		c0.1,0.2,0.2,0.3,0.3,0.5C-32.7,46.4-37,46.4-39.8,46.4z M-22.5,44.8c-0.1,0.7-0.5,1.3-1,1.8c-0.6,0.6-1.3,0.9-2.1,1.1
		c-0.7,0.1-1.4,0-2-0.3c-0.7-0.3-1.3-0.9-1.7-1.5c-0.4-0.6-0.5-1.4-0.5-2.1c0.1-0.8,0.4-1.6,1-2.2c0.6-0.6,1.3-1,2.1-1.1
		c0.8-0.1,1.6,0.1,2.3,0.5c0.7,0.4,1.2,1,1.5,1.7C-22.5,43.3-22.4,44.1-22.5,44.8z"/>
	<path class="st1" d="M-37.1,36.8c-0.5,0-1,0-1.4,0c-0.3,0-0.6,0.3-0.5,0.7c0,0.3,0,0.7,0,1c0,0.3,0.3,0.6,0.7,0.6
		c0.4,0,0.8,0,1.2,0c0.1,0,0.3,0,0.4,0c0.2-0.1,0.4-0.3,0.4-0.6c0-0.3,0-0.7,0-1C-36.4,37.1-36.7,36.8-37.1,36.8z M-37.1,38.4
		c-0.4,0-0.9,0-1.3,0c0-0.3,0-0.7,0-1c0.4,0,0.9,0,1.3,0C-37.1,37.8-37.1,38.1-37.1,38.4z"/>
	<path class="st1" d="M-34.4,39.1c0.4,0,0.8,0,1.2,0c0.1,0,0.3,0,0.4,0c0.2-0.1,0.4-0.3,0.4-0.6c0-0.3,0-0.7,0-1
		c0-0.4-0.3-0.7-0.7-0.7c-0.5,0-1,0-1.4,0c-0.3,0-0.6,0.3-0.5,0.7c0,0.3,0,0.7,0,1C-35,38.8-34.7,39.1-34.4,39.1z M-34.4,37.4
		c0.4,0,0.9,0,1.3,0c0,0.3,0,0.7,0,1c-0.4,0-0.9,0-1.3,0C-34.4,38.1-34.4,37.8-34.4,37.4z"/>
	<path class="st1" d="M-30.4,39.1c0.4,0,0.9,0,1.3,0c0.3,0,0.6-0.3,0.7-0.6c0-0.3,0-0.6,0-0.8c0-0.2,0-0.3-0.1-0.5
		c-0.1-0.2-0.4-0.4-0.6-0.4c-0.5,0-0.9,0-1.4,0c-0.3,0-0.5,0.3-0.5,0.6c0,0.4,0,0.8,0,1.2C-31,38.8-30.7,39.1-30.4,39.1z
		 M-30.4,37.4c0.4,0,0.9,0,1.3,0c0,0.3,0,0.7,0,1c-0.4,0-0.9,0-1.3,0C-30.4,38.1-30.4,37.8-30.4,37.4z"/>
	<path class="st1" d="M-26.4,39.1c0.4,0,0.9,0,1.3,0c0.3,0,0.6-0.3,0.7-0.6c0-0.3,0-0.7,0-1c0-0.4-0.3-0.7-0.7-0.7c-0.5,0-1,0-1.4,0
		c-0.3,0-0.5,0.3-0.5,0.6c0,0.4,0,0.8,0,1.2C-27,38.9-26.7,39.1-26.4,39.1z M-26.4,37.4c0.4,0,0.9,0,1.3,0c0,0.3,0,0.7,0,1
		c-0.4,0-0.9,0-1.3,0C-26.4,38.1-26.4,37.8-26.4,37.4z"/>
	<path class="st1" d="M-37.1,39.8c-0.5,0-1,0-1.4,0c-0.3,0-0.5,0.3-0.5,0.6c0,0.4,0,0.8,0,1.2c0,0.3,0.3,0.6,0.7,0.6
		c0.4,0,0.9,0,1.3,0c0.3,0,0.6-0.3,0.7-0.6c0-0.3,0-0.7,0-1C-36.4,40.1-36.7,39.7-37.1,39.8z M-37.1,41.4c-0.4,0-0.9,0-1.3,0
		c0-0.3,0-0.7,0-1c0.4,0,0.9,0,1.3,0C-37.1,40.8-37.1,41.1-37.1,41.4z"/>
	<path class="st1" d="M-33.1,39.8c-0.5,0-0.9,0-1.4,0c-0.3,0-0.6,0.3-0.5,0.7c0,0.3,0,0.7,0,1c0,0.3,0.3,0.6,0.7,0.6
		c0.4,0,0.9,0,1.3,0c0.3,0,0.6-0.3,0.7-0.6c0-0.3,0-0.5,0-0.8c0-0.2,0-0.4-0.1-0.6C-32.6,39.9-32.9,39.7-33.1,39.8z M-33.1,41.4
		c-0.4,0-0.9,0-1.3,0c0-0.3,0-0.7,0-1c0.4,0,0.9,0,1.3,0C-33.1,40.8-33.1,41.1-33.1,41.4z"/>
	<path class="st1" d="M-30.1,41.6c0-0.1-0.2-0.2-0.3-0.2c0-0.3,0-0.7,0-1c0.4,0,0.9,0,1.3,0c0.2,0,0.3-0.2,0.3-0.3
		c0-0.2-0.2-0.3-0.3-0.3c-0.5,0-0.9,0-1.4,0c-0.3,0-0.6,0.3-0.6,0.7c0,0.3,0,0.7,0,1c0,0.4,0.4,0.7,0.7,0.6
		C-30.1,42-30,41.8-30.1,41.6z"/>
	<path class="st1" d="M-24.2,42.7c-0.9,0.9-1.7,1.7-2.6,2.6c-0.4-0.4-0.8-0.8-1.2-1.2C-28,44-28.2,44-28.3,44
		c-0.2,0.1-0.2,0.2-0.2,0.4c0,0.1,0.1,0.2,0.2,0.3c0.4,0.4,0.9,0.9,1.3,1.3c0.1,0.1,0.4,0.1,0.5,0c0.9-0.9,1.8-1.8,2.7-2.7
		c0.1-0.1,0.2-0.2,0.2-0.4C-23.6,42.6-24,42.5-24.2,42.7z"/>
	<path class="st1" d="M-37.1,42.7c-0.5,0-1,0-1.4,0c-0.3,0-0.5,0.3-0.5,0.6c0,0.4,0,0.8,0,1.2c0,0.3,0.3,0.6,0.7,0.6
		c0.4,0,0.9,0,1.3,0c0.3,0,0.6-0.3,0.7-0.6c0-0.3,0-0.7,0-1C-36.4,43.1-36.7,42.7-37.1,42.7z M-37.1,44.4c-0.4,0-0.9,0-1.3,0
		c0-0.3,0-0.7,0-1c0.4,0,0.9,0,1.3,0C-37.1,43.7-37.1,44.1-37.1,44.4z"/>
	<path class="st1" d="M-33.1,42.7c-0.5,0-1,0-1.4,0c-0.3,0-0.5,0.3-0.5,0.6c0,0.4,0,0.8,0,1.2c0,0.3,0.3,0.6,0.7,0.6
		c0.4,0,0.8,0,1.2,0c0.1,0,0.2,0,0.3,0c0.3-0.1,0.5-0.3,0.4-0.6c0-0.3,0-0.7,0-1C-32.4,43.1-32.7,42.7-33.1,42.7z M-33.1,44.4
		c-0.4,0-0.9,0-1.3,0c0-0.3,0-0.7,0-1c0.4,0,0.9,0,1.3,0C-33.1,43.7-33.1,44.1-33.1,44.4z"/>
</g>
<path class="st0" d="M-41.4,34.8h19.3c0,0,1.3-4.1-2.2-4.1h-1c0,0-0.1-2-1.2-1.9c-1.1,0.1-1,2-1,2h-3.3c0,0,0.1-1.7-0.9-2
	c0,0-1.1,0.3-1.1,1.9h-3.3c0,0,0.1-2.1-1-1.9c0,0-1,0.2-1,2c0,0-3.3-0.8-3.4,2.3C-41.5,33.1-41.4,34.6-41.4,34.8z"/>
<path class="st0" d="M-41.4,34.8v10.5c0,0-0.1,1.8,2.3,1.6h9.9c0,0,2.2,2.1,4.7,0.9s2.3-4.6,2.3-4.6v-8.3
	C-22.1,34.8-41.4,34.8-41.4,34.8z"/>
<g>
	<g>
		<path class="st1" d="M21,44.2c0-4.4,0-8.8,0-13.3c0-0.6-0.5-1.1-1.1-1.1c-0.6,0-1.1,0-1.7,0c0-0.5,0-1,0-1.4c0-0.6-0.5-1-1.1-1.1
			H17c-0.6,0.1-1,0.5-1.1,1.1c0,0.5,0,1,0,1.4c-0.8,0-1.6,0-2.5,0c0-0.5,0-1,0-1.5c0-0.6-0.5-1-1.1-1.1h-0.2c-0.6,0.1-1,0.5-1.1,1.1
			c0,0.5,0,1,0,1.4c-0.8,0-1.6,0-2.5,0c0-0.4,0-0.9,0-1.3c0-0.6-0.5-1.1-1.1-1.2H7.4c-0.6,0.1-1.1,0.6-1.1,1.2c0,0.4,0,0.9,0,1.3
			c-0.6,0-1.1,0-1.7,0c-0.6,0-1.1,0.5-1.1,1.1c0,0.4,0,2.1,0,3.2c0,0.1,0,0.2,0,0.3c0,0.2,0,0.4,0,0.6c0,0,0,0.1,0,0.1c0,0,0,0,0,0
			c0,4.3,0,8.6,0,13c0,0.3,0,0.6,0.1,0.9c0.2,0.4,0.5,0.7,1,0.7h15.4c0.3,0,0.6-0.2,0.8-0.5c0.1-0.2,0.2-0.5,0.2-0.7
			c0-0.6,0-1.2,0-1.8C21,45.8,21,44.3,21,44.2z M16.5,28.4c0-0.2,0.1-0.4,0.4-0.5c0.3-0.1,0.7,0.1,0.7,0.5c0,0.8,0,1.7,0,2.5
			c0,0.2,0,0.4-0.2,0.5c-0.2,0.2-0.5,0.2-0.7,0c-0.1-0.1-0.2-0.3-0.2-0.4C16.5,30.1,16.5,29.2,16.5,28.4z M11.7,28.4
			c0-0.2,0.1-0.4,0.4-0.5c0.3-0.1,0.7,0.2,0.7,0.5c0,0.8,0,1.7,0,2.5c0,0.2-0.1,0.3-0.2,0.4c-0.2,0.1-0.5,0.1-0.6,0
			c-0.1-0.1-0.2-0.3-0.2-0.4C11.7,30.1,11.7,29.3,11.7,28.4z M6.9,28.4c0-0.2,0.1-0.4,0.4-0.5C7.6,27.8,8,28.1,8,28.4
			c0,0.8,0,1.7,0,2.5c0,0.2,0,0.4-0.2,0.5c-0.2,0.2-0.5,0.2-0.7,0C7,31.2,6.9,31,6.9,30.9C6.9,30.1,6.9,29.2,6.9,28.4z M20.1,48.9
			c-0.2,0.1-0.4,0.1-0.5,0.1c-4.9,0-9.9,0-14.8,0c-0.3,0-0.5-0.2-0.5-0.5c0-4.4,0-8.9,0-13.3c0,0,0-0.1,0-0.1c0-0.2,0-0.4,0-0.6
			c0-0.1,0-0.1,0-0.2c0-1.1,0-2.8,0-3.2c0-0.2,0.1-0.3,0.2-0.4c0.1-0.1,0.3-0.1,0.4-0.1c0.5,0,1,0,1.5,0c0,0.3,0,0.7,0.1,1
			c0.2,0.5,0.7,0.8,1.2,0.7c0.5-0.1,0.9-0.5,1-0.9c0-0.2,0-0.5,0-0.7c0.8,0,1.6,0,2.5,0c0,0.2,0,0.5,0,0.7c0.1,0.5,0.5,0.9,1,0.9
			c0.5,0.1,1-0.2,1.2-0.7c0.1-0.3,0.1-0.7,0.1-1c0.8,0,1.6,0,2.5,0c0,0.3,0,0.7,0.1,1c0.2,0.4,0.7,0.7,1.2,0.7c0.5,0,0.9-0.4,1-0.9
			c0.1-0.3,0-0.5,0-0.8c0.5,0,1.1,0,1.6,0c0.3,0,0.5,0.3,0.5,0.5c0,4.5,0,11.4,0,15.9c0,0,0,0,0,0c0,0.5,0,1,0,1.6
			C20.3,48.6,20.2,48.8,20.1,48.9z"/>
		<path class="st1" d="M8.9,33.9c-0.6,0.7-1.2,1.4-1.7,2.1c-0.1-0.2-0.2-0.4-0.3-0.5c-0.1-0.1-0.1-0.2-0.2-0.2
			c-0.2-0.1-0.4,0-0.4,0.2c0,0.1,0,0.2,0,0.3c0.2,0.3,0.4,0.7,0.6,1c0.1,0.2,0.3,0.2,0.5,0.1c0.1-0.1,0.2-0.2,0.2-0.2
			c0.6-0.8,1.3-1.5,1.9-2.3c0.1-0.1,0.1-0.4,0-0.5C9.2,33.8,9,33.8,8.9,33.9z"/>
		<path class="st1" d="M17.6,35c-2.3,0-4.6,0-7,0c-0.5,0-0.9,0.5-0.9,0.9c0,0.4,0.2,0.8,0.6,1c0.2,0.1,0.5,0.1,0.7,0.1
			c2.2,0,4.4,0,6.6,0c0.3,0,0.6-0.1,0.8-0.3c0.3-0.3,0.4-0.7,0.3-1C18.5,35.3,18.1,35,17.6,35z M17.9,36.4c-0.1,0.1-0.3,0.1-0.4,0.1
			c-2.2,0-4.4,0-6.6,0c-0.2,0-0.3-0.1-0.4-0.2c-0.1-0.2,0-0.4,0.2-0.5c0.1,0,0.1,0,0.2,0c2.3,0,4.5,0,6.8,0c0.1,0,0.3,0.1,0.3,0.2
			C18.1,36,18,36.3,17.9,36.4z"/>
		<path class="st1" d="M8.9,38.3c-0.6,0.7-1.2,1.4-1.7,2.1c-0.1-0.2-0.3-0.4-0.4-0.6c-0.1-0.2-0.3-0.2-0.5-0.1
			c-0.1,0.1-0.2,0.3-0.1,0.4c0.2,0.3,0.4,0.7,0.6,1c0.1,0.2,0.3,0.2,0.5,0.1c0.1-0.1,0.2-0.2,0.2-0.2c0.6-0.8,1.3-1.5,1.9-2.3
			c0.1-0.1,0.1-0.4,0-0.5C9.2,38.1,9,38.1,8.9,38.3z"/>
		<path class="st1" d="M10.8,41.4c2.3,0,4.6,0,6.8,0c0.4,0,0.8-0.3,0.9-0.6c0.2-0.3,0.1-0.8-0.1-1.1c-0.2-0.2-0.5-0.4-0.8-0.4
			c-2.3,0-4.6,0-7,0c-0.4,0-0.8,0.4-0.9,0.8c-0.1,0.4,0,0.8,0.3,1C10.3,41.3,10.5,41.4,10.8,41.4z M10.7,40c2.3,0,4.6,0,6.9,0
			c0.2,0,0.4,0.2,0.4,0.4c0,0.2-0.2,0.4-0.4,0.4c-2.3,0-4.5,0-6.8,0c-0.2,0-0.4-0.1-0.4-0.3C10.3,40.3,10.5,40,10.7,40z"/>
		<path class="st1" d="M8.9,42.5c-0.1,0.1-0.1,0.1-0.2,0.2c-0.5,0.7-1.1,1.3-1.6,1.9c-0.1-0.2-0.2-0.4-0.3-0.5
			c-0.1-0.1-0.1-0.2-0.2-0.2c-0.2-0.1-0.4,0.1-0.4,0.2c0,0.1,0,0.2,0.1,0.3c0.2,0.3,0.4,0.6,0.6,0.9c0.1,0.2,0.4,0.2,0.5,0
			c0.7-0.8,1.3-1.6,2-2.4c0.1-0.1,0.1-0.3,0-0.4C9.3,42.5,9.1,42.4,8.9,42.5z"/>
		<path class="st1" d="M17.9,43.7c-0.2,0-0.4,0-0.5,0c-2.1,0-4.2,0-6.3,0c-0.2,0-0.4,0-0.6,0c-0.3,0.1-0.6,0.4-0.7,0.7
			c-0.1,0.3,0,0.7,0.2,0.9c0.2,0.2,0.5,0.3,0.8,0.3c2.3,0,4.6,0,6.9,0c0.3,0,0.6-0.1,0.8-0.4c0.2-0.3,0.3-0.7,0.2-1
			C18.5,44,18.2,43.8,17.9,43.7z M17.6,45.1c-2.3,0-4.5,0-6.8,0c-0.2,0-0.3-0.1-0.4-0.2c-0.1-0.2,0-0.4,0.2-0.5c0.1,0,0.3,0,0.4,0
			c2.2,0,4.4,0,6.6,0c0.2,0,0.4,0.2,0.4,0.4C18,44.9,17.8,45.1,17.6,45.1z"/>
	</g>
	<path class="st0" d="M18,30.2v-1.7c0-0.5-0.4-0.8-0.8-0.8c-0.5,0-0.8,0.4-0.8,0.8v1.7h-3.3v-1.7c0-0.5-0.4-0.8-0.8-0.8
		c-0.5,0-0.8,0.4-0.8,0.8v1.7H8.3v-1.7c0-0.5-0.4-0.8-0.8-0.8c-0.5,0-0.8,0.4-0.8,0.8v1.7H3.9v18.9h16.6V30.2H18z"/>
</g>
<g id="_x23_000000ff_00000035520783420905781430000010152362033824961714_">
	<path class="st0" d="M50.3,48.1l-3.2-3.4l1.3-1.5l0.2-1.1l-0.7-1.6l-2.3,0.1l-0.6-1l0.3-3.1l2.4-0.2l0.8-0.7l0.5-1.6l-1.3-1.3
		L47.1,32l2-2.2l0.9-0.4L52,31l2.1-0.9c0,0-0.3-2.6,0.7-2.7c1-0.2,2.5-0.1,2.5-0.1l0.9,0.2l0.4,1.2l-0.1,1.3l2.1,1l2.2-1.8l1.8,1.5
		l0.8,1l-0.4,1l-1.1,0.9l0.4,1.3l0.6,1.1l2.4,0.1l0.4,0.7l0.1,2.6l-0.4,0.9l-2.5,0.1l-0.6,1.5l-0.3,0.7l1.4,1.7l0.1,0.8l-2.2,2.1
		l-0.8,0.7L62,49.4H50.4C50.4,49.4,50.2,48.1,50.3,48.1z"/>
	<path class="st1" d="M55.6,32.4c1.2-0.1,2.5,0.1,3.6,0.7c1.1,0.6,2,1.6,2.6,2.8c0.5,1.1,0.7,2.4,0.4,3.6c-0.2,0.9-0.6,1.8-1.1,2.6
		c-0.1,0.2-0.4,0.2-0.5,0c-0.1-0.1-0.1-0.4,0-0.5c0.7-1,1.1-2.1,1.1-3.3c0-1.2-0.4-2.3-1.2-3.2c-0.8-1-1.9-1.7-3.2-1.9
		c-1.2-0.2-2.4-0.1-3.4,0.5c-1.4,0.7-2.4,1.9-2.8,3.4c-0.4,1.5-0.1,3.2,0.8,4.5c0.1,0.1,0.2,0.3,0.2,0.4c0,0.2-0.2,0.4-0.4,0.3
		c-0.2,0-0.3-0.2-0.3-0.3c-0.7-1.1-1.1-2.4-1.1-3.7c0-1.4,0.6-2.8,1.5-3.8C52.7,33.3,54.1,32.5,55.6,32.4z"/>
	<path class="st1" d="M56,35.2c0.6,0,1.2,0.1,1.8,0.4c0.7,0.4,1.3,1,1.5,1.7c0.3,0.7,0.3,1.5,0,2.3c-0.3,0.7-0.8,1.4-1.4,1.8
		c-1.1,0.7-2.5,0.6-3.5-0.1c-0.7-0.5-1.2-1.2-1.3-2c-0.2-0.8-0.1-1.6,0.3-2.3C53.9,35.9,54.9,35.3,56,35.2 M55.8,35.9
		c-0.7,0.1-1.4,0.6-1.8,1.2c-0.4,0.6-0.5,1.4-0.2,2.1c0.2,0.6,0.6,1.1,1.2,1.4c0.6,0.3,1.3,0.4,1.9,0.3c0.6-0.2,1.2-0.6,1.6-1.1
		c0.3-0.5,0.5-1.2,0.4-1.8c-0.1-0.7-0.5-1.3-1.1-1.7C57.1,36,56.4,35.8,55.8,35.9z"/>
	<path class="st1" d="M66.6,35.9c-0.6,0-1.2,0-1.8,0c-0.2-0.6-0.4-1.2-0.7-1.8c0.4-0.4,0.8-0.8,1.3-1.3c0.3-0.3,0.4-0.8,0.3-1.3
		c-0.1-0.2-0.2-0.4-0.4-0.5c-0.6-0.6-1.2-1.2-1.8-1.7c-0.4-0.4-0.9-0.4-1.4-0.2c-0.2,0.1-0.3,0.2-0.5,0.4c-0.4,0.4-0.7,0.7-1.1,1.1
		c-0.6-0.3-1.1-0.5-1.8-0.7c0-0.6,0-1.2,0-1.8c0-0.6-0.5-1.1-1.1-1.1h-2.8c-0.4,0-0.8,0.3-0.9,0.6c-0.1,0.2-0.2,0.5-0.2,0.7
		c0,0.6,0,1.1,0,1.7c-0.6,0.2-1.2,0.4-1.8,0.7c-0.4-0.4-0.8-0.8-1.2-1.2c-0.4-0.5-1.2-0.5-1.7,0c-0.6,0.6-1.3,1.3-1.9,1.9
		c-0.4,0.4-0.4,1.2,0,1.6c0.4,0.4,0.9,0.9,1.3,1.3c-0.3,0.6-0.5,1.1-0.7,1.8c-0.6,0-1.2,0-1.8,0c-0.6,0-1.1,0.5-1.1,1.1v2.8
		c0,0.6,0.5,1.1,1.1,1.1c0.6,0,1.2,0,1.8,0c0.2,0.6,0.4,1.2,0.7,1.8c-0.4,0.4-0.8,0.8-1.2,1.2c-0.5,0.4-0.5,1.2,0,1.7
		c0.6,0.6,2.3,2.3,2.9,2.9c0,0,0,0,0.1,0.1c0,0.3,0,0.7,0,1c0,0.2,0.1,0.3,0.3,0.4H62c0.2,0,0.3-0.2,0.3-0.4c0-0.3,0-0.7,0-1
		c0.1,0,0.1-0.1,0.2-0.1c0.6-0.6,2.2-2.2,2.8-2.8c0.3-0.3,0.4-0.8,0.3-1.2c-0.1-0.2-0.2-0.4-0.4-0.5c-0.4-0.4-0.8-0.7-1.1-1.1
		c0.3-0.6,0.5-1.1,0.7-1.8c0.6,0,1.2,0,1.8,0c0.6,0,1.1-0.5,1.1-1.1V37C67.7,36.5,67.2,36,66.6,35.9z M50.9,49.2c0-1.1,0-2.2,0-3.3
		c0-0.6,0.2-1.2,0.5-1.7c0.5-0.7,1.2-1.2,2-1.3c0.8,2.1,1.6,4.2,2.4,6.3C54.2,49.2,52.5,49.2,50.9,49.2z M55.6,46.6
		c0.1-0.9,0.3-1.7,0.5-2.6c0-0.1,0-0.2,0-0.3c-0.2-0.3-0.3-0.6-0.5-1c0.5,0,0.9,0,1.4,0c-0.2,0.3-0.3,0.6-0.5,0.9
		c0,0.1-0.1,0.2-0.1,0.3c0.2,0.9,0.3,1.8,0.5,2.6c-0.2,0.5-0.4,1.1-0.6,1.6C56,47.7,55.8,47.2,55.6,46.6z M56.7,49.2
		c0.8-2.1,1.6-4.2,2.4-6.3c0.7,0.1,1.4,0.6,1.9,1.2c0.4,0.5,0.7,1.2,0.7,1.9c0,1.1,0,2.2,0,3.3C60,49.2,58.3,49.2,56.7,49.2z
		 M67,39.7c0,0.2-0.2,0.5-0.4,0.5c-0.7,0-1.4,0-2.1,0c-0.2,0-0.3,0.1-0.4,0.3c-0.2,0.7-0.5,1.4-0.8,2c-0.1,0.1-0.1,0.2-0.1,0.3
		c0,0.1,0.1,0.2,0.2,0.3c0.4,0.4,0.9,0.9,1.3,1.3c0.2,0.2,0.2,0.5,0,0.7c-0.5,0.5-1.7,1.7-2.4,2.4c0-0.5,0-1.1,0-1.6
		c0-0.9-0.3-1.7-0.8-2.4c-0.6-0.8-1.6-1.4-2.7-1.4c-0.2,0-0.3,0.1-0.4,0.3c-0.4,1-0.7,2-1.1,3c-0.1-0.4-0.2-0.9-0.3-1.3
		c0.2-0.5,0.5-0.9,0.7-1.4c0.1-0.1,0.1-0.4-0.1-0.5c-0.1-0.1-0.3-0.1-0.4-0.1c-0.8,0-1.6,0-2.4,0c-0.3,0-0.4,0.3-0.3,0.5
		c0.2,0.5,0.5,0.9,0.8,1.4c-0.1,0.4-0.2,0.9-0.3,1.3c-0.4-1-0.8-2-1.1-3c0-0.2-0.2-0.3-0.4-0.3c-1.3,0.1-2.6,1-3.1,2.2
		c-0.2,0.5-0.4,1.1-0.4,1.7c0,0.5,0,1,0,1.5c-0.8-0.8-1.9-1.9-2.4-2.4c-0.2-0.2-0.2-0.5,0-0.7c0.5-0.5,0.9-0.9,1.4-1.4
		c0.1-0.1,0.2-0.3,0.1-0.5c-0.4-0.6-0.6-1.3-0.8-1.9c0-0.1-0.1-0.2-0.2-0.3c-0.1-0.1-0.2-0.1-0.3-0.1c-0.6,0-1.3,0-1.9,0
		c-0.3,0-0.5-0.2-0.5-0.5c0-0.8,0-1.6,0-2.5c0-0.1,0-0.2,0-0.3c0.1-0.2,0.3-0.3,0.5-0.3c0.7,0,1.3,0,2,0c0.2,0,0.3-0.1,0.4-0.3
		c0.2-0.7,0.4-1.4,0.8-2c0.1-0.2,0.1-0.4,0-0.6c-0.5-0.5-0.9-0.9-1.4-1.4c-0.2-0.2-0.2-0.5,0-0.7c0.6-0.6,1.2-1.2,1.8-1.8
		c0.2-0.2,0.6-0.2,0.8,0c0.4,0.4,0.9,0.9,1.3,1.3c0.1,0.1,0.2,0.2,0.3,0.2c0.1,0,0.2,0,0.3-0.1c0.5-0.3,1.1-0.5,1.7-0.7
		c0.1,0,0.3-0.1,0.4-0.1c0.1-0.1,0.2-0.2,0.2-0.4c0-0.7,0-1.3,0-2c0-0.3,0.2-0.5,0.5-0.5c0.8,0,1.6,0,2.5,0c0.1,0,0.2,0,0.4,0.1
		c0.2,0.1,0.3,0.3,0.3,0.4c0,0.7,0,1.3,0,2c0,0.2,0.1,0.3,0.3,0.4c0.7,0.2,1.3,0.4,1.9,0.8c0.1,0.1,0.2,0.1,0.3,0.1
		c0.1,0,0.2-0.1,0.3-0.1c0.5-0.5,0.9-0.9,1.4-1.4c0.2-0.2,0.6-0.2,0.8,0c0.6,0.6,1.2,1.2,1.8,1.8c0.2,0.2,0.2,0.5,0,0.7
		c-0.5,0.5-0.9,0.9-1.4,1.4c-0.2,0.1-0.2,0.4,0,0.6c0.4,0.6,0.6,1.3,0.8,2c0,0.2,0.2,0.3,0.4,0.3c0.7,0,1.3,0,2,0
		c0.2,0,0.3,0.1,0.4,0.2C67,37,67,37.1,67,37.3C67,38.1,67,38.9,67,39.7z"/>
</g>
<g id="_x23_000000ff_00000002346199498603492400000000626822898474652069_">
	<path class="st1" d="M63,54.9c0.5-0.4,1.1-0.7,1.8-0.7c0.6,0,1.2,0.3,1.7,0.8c0.4,0.4,0.6,1,0.7,1.6c0,0.7-0.3,1.4-0.8,1.8
		C66,58.8,65.5,59,65,59.1c0,2.3,0,4.5,0,6.8c1.2,0.9,1.9,2.4,2.1,3.8c0.1,1.5-0.4,3.1-1.4,4.2c-1,1.1-2.5,1.8-4,1.8
		c-1.5,0-3-0.6-4.1-1.7c-0.9-0.9-1.5-2.2-1.5-3.5c-3.5,0-6.9,0-10.4,0c0-4.6,0-9.2,0-13.9c5.5,0,11.1,0,16.6,0
		C62.2,56,62.5,55.4,63,54.9 M64.3,55c-0.7,0.1-1.3,0.7-1.4,1.4c-0.1,0.6,0.2,1.2,0.6,1.6c0.4,0.3,0.8,0.4,1.3,0.4
		c0.5-0.1,1-0.4,1.2-0.8c0.2-0.4,0.3-0.8,0.3-1.2c-0.1-0.5-0.4-1-0.9-1.2C65.2,55,64.7,54.9,64.3,55 M46.3,57.4c0,4.2,0,8.3,0,12.5
		c3.2,0,6.5,0,9.7,0c0-0.2,0-0.5,0.1-0.7c-0.3,0-0.5,0-0.8,0c0-1.4,0-2.8,0-4.2c0.7,0,1.4,0,2.1,0c0,0.5,0,1,0,1.5
		c0.9-1,2.2-1.7,3.6-1.9c1.2-0.1,2.3,0.1,3.3,0.7c0-2.1,0-4.2,0-6.3c-0.4-0.1-0.8-0.2-1.1-0.5c-0.7,0.7-1.4,1.4-2.1,2.1
		c0.1,0.2,0.1,0.5,0.1,0.7c-0.1,0.4-0.5,0.7-0.9,0.7c-0.4,0.1-0.8-0.2-1-0.5c-0.2-0.3-0.2-0.7,0-1c-0.2-0.2-0.5-0.5-0.7-0.7
		c-0.3,0.1-0.6,0.1-0.9,0c-0.6,0.6-1.2,1.2-1.7,1.7c0.2,0.3,0.1,0.7-0.1,1c-0.2,0.3-0.6,0.5-1,0.5c-0.4-0.1-0.8-0.4-0.9-0.9
		c-0.1-0.4,0.2-0.9,0.5-1.1c0.3-0.2,0.6-0.2,0.9,0c0.6-0.6,1.2-1.2,1.7-1.7c-0.2-0.3-0.1-0.8,0.1-1.1c0.2-0.3,0.6-0.4,0.9-0.4
		c0.4,0,0.7,0.3,0.8,0.7c0.1,0.3,0.1,0.5,0,0.8c0.2,0.2,0.5,0.5,0.7,0.7c0.3-0.1,0.6-0.1,0.9,0c0.7-0.7,1.4-1.4,2.1-2.1
		c-0.2-0.2-0.3-0.5-0.4-0.8c-0.2,0-0.3,0-0.5,0C56.7,57.4,51.5,57.4,46.3,57.4 M58,58.8c-0.2,0.1-0.3,0.4-0.1,0.6
		c0.2,0.2,0.5,0.1,0.6-0.2C58.5,58.9,58.2,58.7,58,58.8 M60,60.8c-0.2,0.1-0.3,0.4-0.1,0.6c0.2,0.2,0.5,0.1,0.6-0.2
		C60.6,61,60.3,60.7,60,60.8 M54.8,61.9c-0.2,0.1-0.3,0.4-0.1,0.6c0.2,0.2,0.5,0.1,0.6-0.2C55.4,62,55.1,61.8,54.8,61.9 M58.6,66.3
		c-1,0.7-1.7,1.9-1.9,3.1c-0.2,1,0,2,0.4,2.9c0.4-0.2,0.8-0.5,1.2-0.7c-0.3-0.6-0.4-1.2-0.3-1.8c0.1-0.8,0.5-1.6,1.1-2.2
		c0.5-0.5,1.2-0.8,2-0.9c0-0.5,0-0.9,0-1.4C60.3,65.4,59.4,65.7,58.6,66.3 M61.9,65.3c0,0.5,0,0.9,0,1.4c0.7,0.1,1.4,0.4,2,0.9
		c0.6,0.5,1,1.3,1.1,2c0.1,0.7,0,1.3-0.3,1.9c0.4,0.2,0.8,0.5,1.2,0.7c0.6-1.1,0.6-2.5,0.2-3.7c-0.3-0.8-0.8-1.6-1.5-2.1
		C63.9,65.8,62.9,65.4,61.9,65.3 M56,65.7c0,0.9,0,1.8,0,2.8c0.1,0,0.2,0,0.3,0c0.1-0.3,0.2-0.6,0.4-0.8c0,0,0.1-0.1,0.1-0.2
		c0-0.6,0-1.2,0-1.8C56.5,65.7,56.2,65.7,56,65.7 M61.1,67.4c-1.2,0.2-2.2,1.2-2.3,2.4c-0.1,0.6,0.1,1.3,0.4,1.8
		c0.4,0.6,1,1,1.7,1.2c0.6,0.2,1.3,0.1,1.9-0.2c0.7-0.3,1.2-0.9,1.4-1.6c0.2-0.6,0.2-1.3,0-1.9c-0.2-0.6-0.7-1.2-1.3-1.5
		C62.3,67.5,61.7,67.3,61.1,67.4 M57.5,72.9c0.8,1.2,2.1,1.9,3.5,2.1c1.1,0.1,2.2-0.1,3.2-0.7c0.6-0.4,1-0.8,1.4-1.4
		c-0.4-0.2-0.8-0.5-1.2-0.7c-0.4,0.5-0.9,0.9-1.4,1.2c-0.8,0.3-1.7,0.4-2.5,0.1c-0.7-0.2-1.3-0.7-1.7-1.2
		C58.3,72.4,57.9,72.7,57.5,72.9z"/>
	<path class="st1" d="M47,58.1c0.2,0,0.5,0,0.7,0c0,0.2,0,0.5,0,0.7c-0.2,0-0.5,0-0.7,0C47,58.5,47,58.3,47,58.1z"/>
	<path class="st1" d="M48.4,58.1c1.6,0,3.2,0,4.8,0c0,0.2,0,0.5,0,0.7c-1.6,0-3.2,0-4.8,0C48.4,58.5,48.4,58.3,48.4,58.1z"/>
	<path class="st1" d="M47,59.4c0.2,0,0.5,0,0.7,0c0,0.2,0,0.5,0,0.7c-0.2,0-0.5,0-0.7,0C47,59.9,47,59.7,47,59.4z"/>
	<path class="st1" d="M48.4,59.4c1.6,0,3.2,0,4.8,0c0,0.2,0,0.5,0,0.7c-1.6,0-3.2,0-4.8,0C48.4,59.9,48.4,59.7,48.4,59.4z"/>
	<path class="st1" d="M47,60.8c0.2,0,0.5,0,0.7,0c0,0.2,0,0.5,0,0.7c-0.2,0-0.5,0-0.7,0C47,61.3,47,61.1,47,60.8z"/>
	<path class="st1" d="M48.4,60.8c1.6,0,3.2,0,4.8,0c0,0.2,0,0.5,0,0.7c-1.6,0-3.2,0-4.8,0C48.4,61.3,48.4,61.1,48.4,60.8z"/>
	<path class="st1" d="M47,62.2c0.2,0,0.5,0,0.7,0c0,0.2,0,0.5,0,0.7c-0.2,0-0.5,0-0.7,0C47,62.7,47,62.4,47,62.2z"/>
	<path class="st1" d="M48.4,62.2c1.6,0,3.2,0,4.8,0c0,0.2,0,0.5,0,0.7c-1.6,0-3.2,0-4.8,0C48.4,62.7,48.4,62.4,48.4,62.2z"/>
	<path class="st1" d="M52.5,63.6c0.7,0,1.4,0,2.1,0c0,1.8,0,3.7,0,5.5c-0.7,0-1.4,0-2.1,0C52.5,67.3,52.5,65.4,52.5,63.6 M53.2,64.3
		c0,1.4,0,2.8,0,4.2c0.2,0,0.5,0,0.7,0c0-1.4,0-2.8,0-4.2C53.7,64.3,53.5,64.3,53.2,64.3z"/>
	<path class="st1" d="M47,65.7c0.7,0,1.4,0,2.1,0c0,1.2,0,2.3,0,3.5c-0.7,0-1.4,0-2.1,0C47,68,47,66.8,47,65.7 M47.7,66.4
		c0,0.7,0,1.4,0,2.1c0.2,0,0.5,0,0.7,0c0-0.7,0-1.4,0-2.1C48.1,66.4,47.9,66.4,47.7,66.4z"/>
	<path class="st1" d="M49.8,66.4c0.7,0,1.4,0,2.1,0c0,0.9,0,1.8,0,2.8c-0.7,0-1.4,0-2.1,0C49.8,68.2,49.8,67.3,49.8,66.4 M50.5,67.1
		c0,0.5,0,0.9,0,1.4c0.2,0,0.5,0,0.7,0c0-0.5,0-0.9,0-1.4C50.9,67.1,50.7,67.1,50.5,67.1z"/>
	<path class="st1" d="M61.2,68.1c0.6-0.1,1.2,0,1.6,0.4c0.4,0.3,0.8,0.8,0.8,1.4c0.1,0.6-0.1,1.1-0.4,1.6c-0.4,0.5-0.9,0.7-1.5,0.8
		c-0.7,0-1.3-0.3-1.7-0.8c-0.4-0.5-0.5-1.2-0.4-1.8C59.7,68.9,60.4,68.3,61.2,68.1 M61.4,68.8c-0.5,0.1-0.9,0.4-1.1,0.8
		c-0.2,0.4-0.2,0.9,0.1,1.3c0.3,0.6,1.1,0.8,1.7,0.6c0.6-0.2,1-0.9,0.8-1.6C62.8,69.2,62.1,68.7,61.4,68.8z"/>
</g>
<path class="st0" d="M64.7,66.4v-7.8c1.1,0,2-0.9,2-2c0-1.1-0.9-2-2-2s-2,0.9-2,2c0,0.1,0,0.1,0,0.2H45.9v13.4h10.6c0,0,0,0,0,0.1
	c0,2.7,2.2,5,5,5c2.7,0,5-2.2,5-5C66.5,68.6,65.8,67.3,64.7,66.4z"/>
</svg>
